<svg width="161" height="34" viewBox="0 0 161 34" fill="none" xmlns="http://www.w3.org/2000/svg">
<mask id="mask0_1_121" style="mask-type:luminance" maskUnits="userSpaceOnUse" x="0" y="0" width="34" height="34">
<path d="M0 0H33.2413V33.2413H0V0Z" fill="white"/>
</mask>
<g mask="url(#mask0_1_121)">
<mask id="mask1_1_121" style="mask-type:luminance" maskUnits="userSpaceOnUse" x="0" y="0" width="34" height="34">
<path d="M16.6196 0C7.43995 0 0 7.44211 0 16.6217C0 25.8013 7.43995 33.2413 16.6196 33.2413C25.7992 33.2413 33.2413 25.8013 33.2413 16.6217C33.2413 7.44211 25.7992 0 16.6196 0Z" fill="white"/>
</mask>
<g mask="url(#mask1_1_121)">
<path d="M0 0H33.2413V33.2413H0V0Z" fill="#00A848"/>
</g>
</g>
<mask id="mask2_1_121" style="mask-type:luminance" maskUnits="userSpaceOnUse" x="10" y="2" width="13" height="29">
<path d="M10.0926 2.77999H22.1105V30.5454H10.0926V2.77999Z" fill="white"/>
</mask>
<g mask="url(#mask2_1_121)">
<path d="M17.2584 14.2324L20.8219 5.17578L21.7543 2.80156L20.2219 4.83907L10.5135 17.7505L10.0947 18.3074L10.7919 18.3052L15.0202 18.288L11.3121 27.9036L10.3321 30.444L11.9186 28.2295L21.532 14.7892L21.9227 14.2432L21.2514 14.241L17.2584 14.2324Z" fill="white"/>
</g>
<path d="M38.6036 24.463C37.3302 23.0774 36.6956 21.3766 36.6956 19.3606C36.6956 17.3404 37.3302 15.6353 38.6036 14.2409C39.8749 12.8423 41.4915 12.143 43.4557 12.143C45.2558 12.143 46.7407 12.7106 47.9106 13.8438V3.33679H52.6072V26.1466H47.9624V24.6098H47.9106C46.7407 25.9005 45.2558 26.5437 43.4557 26.5437C41.4915 26.5437 39.8749 25.8509 38.6036 24.463ZM42.5923 17.0555C41.9815 17.6555 41.6772 18.4239 41.6772 19.3606C41.6772 20.293 41.9664 21.0571 42.5492 21.6485C43.1362 22.2421 43.9068 22.5378 44.8629 22.5378C45.7824 22.5378 46.5378 22.2399 47.1249 21.6399C47.7163 21.0355 48.0142 20.2758 48.0142 19.3606C48.0142 18.4239 47.7077 17.6555 47.099 17.0555C46.4882 16.4511 45.7436 16.149 44.8629 16.149C43.9586 16.149 43.201 16.4511 42.5923 17.0555Z" fill="black"/>
<path d="M54.4639 24.4631C53.1905 23.0774 52.5559 21.3766 52.5559 19.3606C52.5559 17.3404 53.1905 15.6353 54.4639 14.241C55.7352 12.8423 57.3518 12.143 59.316 12.143C61.1161 12.143 62.601 12.7107 63.7709 13.8438V12.5401H68.4675V26.1466H63.8227V24.6098H63.7709C62.601 25.9005 61.1161 26.5437 59.316 26.5437C57.3518 26.5437 55.7352 25.8509 54.4639 24.4631ZM58.4526 17.0555C57.8418 17.6555 57.5375 18.4239 57.5375 19.3606C57.5375 20.2931 57.8267 21.0571 58.4094 21.6485C58.9965 22.2421 59.7671 22.5378 60.7232 22.5378C61.6427 22.5378 62.3981 22.2399 62.9852 21.6399C63.5766 21.0355 63.8745 20.2758 63.8745 19.3606C63.8745 18.4239 63.568 17.6555 62.9593 17.0555C62.3485 16.4511 61.6039 16.149 60.7232 16.149C59.8189 16.149 59.0613 16.4511 58.4526 17.0555Z" fill="black"/>
<path d="M70.186 12.5401V7.47225H74.8827V12.5401H77.749V16.1231H74.8827V20.4485C74.8827 21.7046 75.2366 22.3306 75.9446 22.3306C76.1216 22.3306 76.3072 22.296 76.4971 22.227C76.6914 22.1536 76.8446 22.0802 76.9547 22.0111L77.1101 21.8989L78.2756 25.6976C77.2677 26.261 76.1194 26.5437 74.8309 26.5437C73.9438 26.5437 73.1818 26.3905 72.543 26.0862C71.9084 25.7753 71.4292 25.3588 71.1012 24.8343C70.7774 24.312 70.5443 23.7637 70.4018 23.1939C70.2572 22.6198 70.186 22.0025 70.186 21.3463V16.1231H68.2262V12.5401H70.186Z" fill="black"/>
<path d="M91.3841 19.9909H81.5159C81.5159 20.947 81.8224 21.655 82.4397 22.1147C83.0614 22.5766 83.7348 22.8054 84.46 22.8054C85.2197 22.8054 85.8198 22.7061 86.2644 22.5032C86.7069 22.296 87.2098 21.8946 87.7753 21.2945L91.1682 22.9867C89.7523 25.3588 87.3997 26.5437 84.1146 26.5437C82.0642 26.5437 80.3073 25.8423 78.8396 24.4372C77.3719 23.0342 76.638 21.342 76.638 19.3606C76.638 17.3814 77.3719 15.6828 78.8396 14.2669C80.3073 12.851 82.0642 12.143 84.1146 12.143C86.273 12.143 88.0278 12.7689 89.3811 14.0165C90.7322 15.2597 91.41 17.0425 91.41 19.3606C91.41 19.6779 91.4013 19.8873 91.3841 19.9909ZM81.6455 17.3922H86.8169C86.7133 16.6842 86.4327 16.1403 85.9795 15.7605C85.5305 15.3806 84.9521 15.1906 84.2441 15.1906C83.4671 15.1906 82.8477 15.3957 82.3879 15.8036C81.926 16.2137 81.68 16.7425 81.6455 17.3922Z" fill="black"/>
<path d="M97.266 12.143C98.0474 12.143 98.8201 12.2337 99.5798 12.4106C100.34 12.5833 100.903 12.7603 101.272 12.9373L101.833 13.2049L100.296 16.2785C99.2302 15.7151 98.22 15.4324 97.266 15.4324C96.7351 15.4324 96.3595 15.4907 96.135 15.605C95.9149 15.7216 95.807 15.9374 95.807 16.2526C95.807 16.3216 95.8156 16.395 95.8329 16.4684C95.8544 16.5375 95.8933 16.6044 95.9451 16.667C95.9969 16.7317 96.0422 16.7857 96.0832 16.831C96.1286 16.872 96.2041 16.9173 96.3077 16.9691C96.4156 17.0209 96.502 17.062 96.5667 17.09C96.6293 17.1202 96.7307 17.1591 96.8689 17.2109C97.0113 17.2627 97.1193 17.3037 97.1883 17.3318C97.2574 17.3555 97.3739 17.3965 97.5423 17.4526C97.715 17.5044 97.8445 17.539 97.9308 17.5562C98.4769 17.7116 98.9539 17.8886 99.364 18.0829C99.7719 18.2793 100.201 18.5469 100.65 18.8858C101.099 19.2203 101.447 19.6434 101.695 20.1549C101.941 20.6686 102.066 21.2492 102.066 21.8989C102.066 24.9962 99.9187 26.5437 95.6257 26.5437C94.6522 26.5437 93.7284 26.3926 92.8543 26.0948C91.978 25.7969 91.3456 25.4948 90.9549 25.1883L90.3765 24.7134L92.2845 21.5018C92.4226 21.6291 92.6061 21.7759 92.837 21.9421C93.0658 22.1104 93.4802 22.3392 94.0803 22.6327C94.6846 22.9263 95.2069 23.0731 95.6516 23.0731C96.6228 23.0731 97.1106 22.745 97.1106 22.0888C97.1106 21.791 96.9854 21.5579 96.7394 21.3895C96.4912 21.2168 96.0703 21.0269 95.4789 20.8197C94.8853 20.6082 94.4213 20.4118 94.0889 20.2326C93.2363 19.7902 92.5629 19.2916 92.0686 18.739C91.5722 18.1822 91.3262 17.4418 91.3262 16.5202C91.3262 15.1388 91.8614 14.0661 92.932 13.2999C94.0025 12.5294 95.4465 12.143 97.266 12.143Z" fill="black"/>
<path d="M116.15 14.2237C117.428 15.6115 118.067 17.3145 118.067 19.3347C118.067 21.3507 117.428 23.0558 116.15 24.4544C114.877 25.8487 113.26 26.5437 111.298 26.5437C109.496 26.5437 108.011 25.9782 106.843 24.8429V33.0448H102.147V12.5401H106.791V14.0769H106.843C108.011 12.7884 109.496 12.143 111.298 12.143C113.26 12.143 114.877 12.838 116.15 14.2237ZM112.161 21.6399C112.77 21.0355 113.077 20.2672 113.077 19.3347C113.077 18.398 112.783 17.6318 112.196 17.0382C111.613 16.4468 110.845 16.149 109.891 16.149C108.976 16.149 108.22 16.4511 107.629 17.0555C107.035 17.6555 106.74 18.4109 106.74 19.3261C106.74 20.265 107.044 21.0355 107.655 21.6399C108.263 22.2399 109.01 22.5378 109.891 22.5378C110.793 22.5378 111.551 22.2399 112.161 21.6399Z" fill="black"/>
<path d="M118.939 24.4631C117.666 23.0774 117.031 21.3766 117.031 19.3606C117.031 17.3404 117.666 15.6353 118.939 14.241C120.211 12.8423 121.827 12.143 123.791 12.143C125.591 12.143 127.076 12.7107 128.246 13.8438V12.5401H132.943V26.1466H128.298V24.6098H128.246C127.076 25.9005 125.591 26.5437 123.791 26.5437C121.827 26.5437 120.211 25.8509 118.939 24.4631ZM122.928 17.0555C122.317 17.6555 122.013 18.4239 122.013 19.3606C122.013 20.2931 122.302 21.0571 122.885 21.6485C123.472 22.2421 124.242 22.5378 125.199 22.5378C126.118 22.5378 126.873 22.2399 127.461 21.6399C128.052 21.0355 128.35 20.2758 128.35 19.3606C128.35 18.4239 128.043 17.6555 127.435 17.0555C126.824 16.4511 126.079 16.149 125.199 16.149C124.294 16.149 123.537 16.4511 122.928 17.0555Z" fill="black"/>
<path d="M133.867 26.1466V12.5401H138.564V14.5H138.616C138.65 14.4309 138.706 14.3446 138.788 14.241C138.868 14.133 139.041 13.9453 139.306 13.6798C139.57 13.4164 139.852 13.1769 140.152 12.9632C140.457 12.7517 140.845 12.5617 141.318 12.3934C141.795 12.2272 142.285 12.143 142.786 12.143C143.297 12.143 143.8 12.2164 144.296 12.3588C144.791 12.497 145.153 12.6394 145.384 12.7819L145.756 12.9891L143.787 16.9691C143.204 16.4749 142.393 16.2267 141.352 16.2267C140.783 16.2267 140.293 16.3519 139.885 16.5979C139.481 16.8461 139.196 17.1483 139.03 17.5044C138.862 17.8562 138.741 18.1563 138.667 18.4023C138.598 18.6505 138.564 18.8469 138.564 18.9894V26.1466H133.867Z" fill="black"/>
<path d="M160.37 12.5401L153.895 19.0412L161 26.1466H154.957L149.517 20.7075V26.1466H144.821V3.33679H149.517V17.2886L154.266 12.5401H160.37Z" fill="black"/>
</svg>
